<svg width="159" height="52" viewBox="0 0 159 52" fill="none" xmlns="http://www.w3.org/2000/svg">
<path d="M131.493 0.741971C124.921 0.741971 118.892 2.85897 114.162 6.3873C109.266 2.72767 103.144 0.733409 96.8309 0.741971C90.2589 0.741971 84.2302 2.85897 79.4999 6.3873C74.6041 2.72767 68.4818 0.733409 62.1689 0.741971C55.5969 0.741971 49.5682 2.85897 44.8379 6.3873C40.8019 3.37988 35.9206 1.48402 30.7594 0.919364C25.5982 0.354705 20.3684 1.14436 15.6758 3.19684C10.9833 5.24932 7.02013 8.48063 4.24542 12.5164C1.47071 16.5522 -0.00195312 21.2272 -0.00195312 26C-0.00195312 30.7727 1.47071 35.4478 4.24542 39.4835C7.02013 43.5193 10.9833 46.7506 15.6758 48.8031C20.3684 50.8556 25.5982 51.6452 30.7594 51.0806C35.9206 50.5159 40.8019 48.6201 44.8379 45.6126C49.5682 49.141 55.5969 51.258 62.1689 51.258C68.7409 51.258 74.7697 49.141 79.4999 45.6126C84.2302 49.141 90.2589 51.258 96.8309 51.258C103.403 51.258 109.432 49.141 114.162 45.6126C117.581 48.1603 121.616 49.917 125.928 50.7353C130.24 51.5535 134.703 51.4094 138.941 50.3149C143.18 49.2204 147.07 47.2076 150.286 44.4456C153.501 41.6837 155.948 38.2533 157.42 34.4428C158.891 30.6323 159.345 26.5531 158.744 22.548C158.142 18.5429 156.502 14.7289 153.961 11.4267C151.421 8.12453 148.054 5.43057 144.145 3.57128C140.235 1.71198 135.896 0.741697 131.493 0.741971ZM114.162 37.3515C111.58 34.0415 110.195 30.0712 110.2 26C110.2 21.766 111.671 17.8483 114.162 14.6485C116.653 17.8483 118.124 21.766 118.124 26C118.124 30.234 116.653 34.1516 114.162 37.3515ZM79.4999 37.3515C76.9183 34.0415 75.5327 30.0712 75.5382 26C75.5382 21.766 77.0089 17.8483 79.4999 14.6485C81.9909 17.8483 83.4617 21.766 83.4617 26C83.4617 30.234 81.9909 34.1516 79.4999 37.3515ZM44.8379 37.3515C42.2563 34.0415 40.8707 30.0712 40.8762 26C40.8762 21.766 42.3469 17.8483 44.8379 14.6485C47.3289 17.8483 48.7997 21.766 48.7997 26C48.7997 30.234 47.3289 34.1516 44.8379 37.3515ZM6.21416 26C6.21573 22.3517 7.32889 18.7766 9.42777 15.679C11.5266 12.5813 14.5275 10.0847 18.091 8.47141C21.6546 6.85812 25.6386 6.19251 29.5926 6.54986C33.5466 6.90722 37.3128 8.27327 40.4654 10.4936C36.6987 14.9219 34.6555 20.381 34.6619 26C34.6619 31.8461 36.8349 37.2298 40.4654 41.5064C37.3128 43.7267 33.5466 45.0927 29.5926 45.4501C25.6386 45.8074 21.6546 45.1418 18.091 43.5285C14.5275 41.9152 11.5266 39.4186 9.42777 36.321C7.32889 33.2233 6.21573 29.6482 6.21416 26ZM49.2104 41.5064C52.9772 37.0781 55.0203 31.619 55.0139 26C55.0139 20.1539 52.8409 14.7701 49.2104 10.4936C52.9247 7.86783 57.4814 6.44533 62.1689 6.44814C67.0449 6.44814 71.5367 7.95681 75.1274 10.4936C71.3588 14.921 69.3155 20.3807 69.3239 26C69.3239 31.8461 71.4969 37.2298 75.1274 41.5064C71.4131 44.1321 66.8565 45.5546 62.1689 45.5518C57.4808 45.5578 52.9231 44.135 49.2104 41.5064ZM83.8724 41.5064C87.641 37.079 89.6844 31.6193 89.6759 26C89.6759 20.1539 87.5029 14.7701 83.8724 10.4875C87.4632 7.9568 91.9549 6.44205 96.8309 6.44205C101.707 6.44205 106.199 7.95072 109.789 10.4875C106.021 14.9149 103.977 20.3746 103.986 25.9939C103.986 31.84 106.159 37.2237 109.789 41.5003C106.075 44.126 101.518 45.5485 96.8309 45.5457C92.1431 45.5562 87.5845 44.1353 83.8724 41.5064ZM131.493 45.5518C126.805 45.5578 122.247 44.135 118.534 41.5064C122.3 37.0776 124.343 31.6188 124.338 26C124.338 20.1539 122.165 14.7701 118.534 10.4936C121.219 8.60054 124.356 7.32238 127.686 6.76506C131.015 6.20775 134.442 6.38734 137.681 7.28894C140.92 8.19054 143.878 9.78817 146.311 11.9494C148.743 14.1106 150.579 16.773 151.667 19.716C152.755 22.659 153.063 25.7977 152.566 28.8719C152.068 31.9461 150.78 34.8672 148.808 37.3929C146.836 39.9186 144.236 41.9763 141.225 43.3952C138.214 44.8141 134.878 45.5534 131.493 45.5518Z" fill="white"/>
</svg>
