<svg width="45" height="24" viewBox="0 0 45 24" fill="none" xmlns="http://www.w3.org/2000/svg">
<path fill-rule="evenodd" clip-rule="evenodd" d="M42.7875 14.375H2.2125C0 14.375 0 13.4012 0 12C0 10.5988 0 9.625 2.2125 9.625H42.75C44.9625 9.625 44.9625 10.5988 44.9625 12C44.9625 13.4012 44.9625 14.375 42.75 14.375H42.7875ZM42.7875 4.875H2.2125C0 4.875 0 3.90125 0 2.5C0 1.09875 0 0.125 2.2125 0.125H42.75C44.9625 0.125 44.9625 1.09875 44.9625 2.5C44.9625 3.90125 44.9625 4.875 42.75 4.875H42.7875ZM2.2125 19.125H42.75C44.9625 19.125 44.9625 20.0987 44.9625 21.5C44.9625 22.9013 44.9625 23.875 42.75 23.875H2.2125C0 23.875 0 22.9013 0 21.5C0 20.0987 0 19.125 2.2125 19.125Z" fill="white"/>
</svg>
