<svg width="191" height="56" xmlns="http://www.w3.org/2000/svg" xmlns:xlink="http://www.w3.org/1999/xlink" overflow="hidden"><defs><clipPath id="clip0"><rect x="483" y="260" width="191" height="56"/></clipPath></defs><g clip-path="url(#clip0)" transform="translate(-483 -260)"><path d="M608.028 305.542 608.997 305.542 610.22 306.77 606.806 306.77ZM594.057 305.542 595.026 305.542 596.248 306.77 592.835 306.77ZM607.498 296.926 607.498 305.569 606.284 306.789 606.284 298.147ZM595.557 296.926 596.771 298.147 596.771 306.789 595.557 305.569ZM595.557 296.037 607.498 296.037 606.284 297.257 596.771 297.257ZM515.166 293.308C515.694 293.308 516.122 293.717 516.122 294.221 516.122 294.726 515.694 295.135 515.166 295.135 514.639 295.135 514.211 294.726 514.211 294.221 514.211 293.717 514.639 293.308 515.166 293.308ZM506.859 293.214 507.529 294.497 506.19 294.497ZM655.338 292.669C655.365 292.669 655.541 292.698 655.614 292.715 655.877 292.775 656.016 292.875 656.051 293.031 656.075 293.142 656.027 293.302 655.953 293.359 655.904 293.397 655.865 293.405 655.739 293.405 655.622 293.405 655.585 293.399 655.411 293.356L655.327 293.335 655.322 293.124C655.319 293.008 655.319 292.858 655.322 292.791 655.326 292.689 655.329 292.669 655.338 292.669ZM596.771 292.434 606.284 292.434 607.498 293.654 595.557 293.654ZM517.545 292.394 517.545 296.048 518.617 296.048 518.617 292.394ZM509.404 292.379 509.404 294.335 509.404 294.363 509.407 294.363 509.439 294.68C509.601 295.461 510.298 296.048 511.134 296.048 511.969 296.048 512.667 295.461 512.828 294.68L512.86 294.363 512.863 294.363 512.863 294.335 512.863 292.379 511.693 292.379 511.693 294.335 511.681 294.335C511.681 294.636 511.436 294.881 511.134 294.881 510.831 294.881 510.586 294.636 510.586 294.335L510.575 294.335 510.575 292.379ZM633.47 291.777C633.477 291.779 633.508 291.787 633.541 291.795L633.601 291.81 633.716 292.156C633.779 292.346 633.831 292.503 633.829 292.503 633.823 292.509 633.643 292.486 633.461 292.459 633.352 292.442 633.257 292.428 633.248 292.428 633.21 292.427 633.211 292.424 633.262 292.282 633.289 292.208 633.345 292.063 633.385 291.96 633.445 291.808 633.461 291.773 633.47 291.777ZM655.338 291.445C655.398 291.445 655.574 291.483 655.651 291.512 655.854 291.588 655.935 291.734 655.874 291.911 655.842 292.005 655.784 292.046 655.677 292.052 655.608 292.055 655.55 292.047 655.423 292.015L655.325 291.991 655.325 291.718C655.325 291.463 655.326 291.445 655.338 291.445ZM636.078 291.32C635.921 291.32 635.79 291.323 635.788 291.325 635.786 291.329 635.784 291.787 635.784 292.345 635.783 293.46 635.782 293.421 635.828 293.582 635.943 293.986 636.214 294.24 636.619 294.324 636.852 294.372 637.126 294.356 637.337 294.281 637.696 294.154 637.942 293.838 638.008 293.418 638.021 293.337 638.021 293.273 638.018 292.331 638.018 291.781 638.014 291.328 638.011 291.325 638.008 291.322 637.879 291.321 637.724 291.321L637.443 291.323 637.442 292.321C637.441 293.422 637.443 293.356 637.395 293.466 637.357 293.551 637.276 293.647 637.201 293.693 637.155 293.721 637.062 293.758 637.009 293.769 636.931 293.784 636.817 293.779 636.745 293.756 636.56 293.698 636.421 293.555 636.373 293.374 636.361 293.329 636.36 293.256 636.362 292.322L636.364 291.32ZM657.786 291.122 657.778 291.139C657.767 291.166 657.769 294.159 657.781 294.166 657.785 294.169 657.905 294.171 658.046 294.171L658.304 294.171 658.309 293.997C658.312 293.901 658.312 293.214 658.309 292.472L658.304 291.122 658.044 291.122ZM640.928 290.991C640.919 290.987 640.761 291.013 640.431 291.076 640.165 291.126 639.808 291.192 639.636 291.224 639.465 291.255 639.309 291.284 639.289 291.288L639.254 291.296 639.259 291.504C639.262 291.619 639.266 291.715 639.269 291.717 639.278 291.726 639.517 291.783 639.6 291.796 639.646 291.804 639.702 291.817 639.723 291.826L639.761 291.841 639.761 292.048C639.761 292.162 639.766 292.671 639.772 293.18 639.778 293.689 639.783 294.124 639.783 294.147L639.783 294.19 639.84 294.186C639.871 294.183 639.982 294.176 640.087 294.171 640.191 294.165 640.291 294.159 640.309 294.157L640.339 294.154 640.339 294.054C640.339 293.799 640.361 291.872 640.366 291.765 640.37 291.649 640.371 291.644 640.386 291.64 640.405 291.635 640.957 291.438 640.961 291.436 640.962 291.434 640.959 291.367 640.955 291.286 640.95 291.205 640.945 291.111 640.944 291.079 640.943 291.046 640.941 291.014 640.941 291.008 640.941 291.002 640.934 290.994 640.928 290.991ZM659.921 290.951C659.841 290.952 659.739 290.953 659.648 290.955L659.558 290.957 659.558 292.476 659.558 293.996 660.291 293.996 661.023 293.996 661.023 293.71 661.023 293.423 660.666 293.419C660.469 293.417 660.258 293.413 660.198 293.41L660.086 293.406 660.086 292.182 660.086 290.958 660.069 290.954C660.061 290.952 660.002 290.951 659.921 290.951ZM652.232 290.8C652.305 290.801 652.377 290.806 652.412 290.814 652.615 290.855 652.791 290.94 652.941 291.071 653.182 291.28 653.311 291.532 653.338 291.853 653.363 292.136 653.281 292.409 653.105 292.634 653.038 292.72 652.884 292.859 652.796 292.911 652.662 292.992 652.526 293.042 652.375 293.067 652.276 293.085 652.086 293.085 651.998 293.068 651.661 293.004 651.36 292.781 651.192 292.472 651.141 292.378 651.111 292.298 651.085 292.189 651.07 292.122 651.066 292.084 651.063 291.969 651.058 291.809 651.065 291.74 651.098 291.622 651.157 291.41 651.264 291.24 651.434 291.088 651.61 290.93 651.801 290.843 652.046 290.806 652.084 290.8 652.158 290.798 652.232 290.8ZM643.516 290.798C643.556 290.796 643.708 290.812 643.773 290.827 644.001 290.876 644.201 290.995 644.365 291.176 644.564 291.397 644.662 291.653 644.662 291.949 644.662 292.509 644.256 292.981 643.695 293.074 643.603 293.089 643.431 293.089 643.338 293.074 642.984 293.016 642.672 292.795 642.509 292.487 642.416 292.311 642.378 292.156 642.377 291.954 642.377 291.76 642.422 291.575 642.511 291.398 642.616 291.189 642.819 290.999 643.044 290.895 643.155 290.845 643.276 290.815 643.426 290.804 643.467 290.802 643.508 290.798 643.516 290.798ZM654.763 290.752C654.762 290.752 654.761 291.434 654.761 292.268L654.761 293.783 654.888 293.813C655.135 293.873 655.514 293.944 655.671 293.96 655.791 293.973 655.939 293.97 656.046 293.953 656.401 293.898 656.599 293.711 656.644 293.391 656.656 293.304 656.648 293.115 656.629 293.031 656.595 292.879 656.54 292.757 656.425 292.579 656.325 292.423 656.315 292.398 656.33 292.34 656.336 292.318 656.355 292.261 656.371 292.212 656.426 292.052 656.44 291.974 656.441 291.842 656.442 291.744 656.439 291.716 656.425 291.658 656.375 291.458 656.284 291.307 656.131 291.167 655.999 291.048 655.886 290.988 655.679 290.928 655.552 290.891 655.413 290.863 655.12 290.815 654.997 290.794 654.867 290.772 654.83 290.764 654.794 290.758 654.764 290.752 654.763 290.752ZM513.944 290.739 514.935 292.417 514.787 292.431C513.93 292.602 513.286 293.338 513.286 294.221 513.286 295.23 514.128 296.048 515.166 296.048 516.205 296.048 517.047 295.23 517.047 294.221 517.047 293.843 516.928 293.491 516.726 293.2L516.7 293.17 515.26 290.739ZM505.568 290.739 506.273 292.091 504.209 296.048 505.38 296.048 505.66 295.511 508.058 295.511 508.338 296.048 509.51 296.048 506.74 290.739ZM633.295 290.735C633.272 290.731 633.279 290.734 633.277 290.737 633.266 290.752 632.752 291.86 632.521 292.364 632.434 292.555 632.309 292.824 632.245 292.962 632.128 293.211 632.084 293.308 632.043 293.413L632.021 293.467 632.047 293.471C632.062 293.473 632.204 293.499 632.363 293.527 632.522 293.555 632.655 293.577 632.657 293.575 632.66 293.572 632.687 293.515 632.717 293.448 632.837 293.18 632.95 292.952 632.963 292.952 632.967 292.952 633.032 292.963 633.108 292.975 633.223 292.994 633.43 293.027 633.92 293.102 633.956 293.107 633.989 293.115 633.994 293.118 633.998 293.121 634.01 293.142 634.019 293.166 634.057 293.26 634.151 293.48 634.254 293.713L634.364 293.962 634.405 293.966C634.428 293.968 634.548 293.985 634.671 294.003 634.795 294.021 634.898 294.036 634.9 294.036 634.905 294.036 634.657 293.366 634.315 292.46 634.159 292.046 633.958 291.509 633.869 291.268L633.707 290.828 633.494 290.78C633.372 290.752 633.318 290.74 633.295 290.735ZM663.386 290.402C663.381 290.403 663.019 290.499 662.579 290.616L661.781 290.828 661.779 292.291 661.777 293.753 661.795 293.749C661.855 293.736 662.638 293.581 662.956 293.52 663.164 293.48 663.354 293.444 663.378 293.439L663.422 293.43 663.424 293.182 663.425 292.934 663.409 292.936C663.285 292.953 663.15 292.974 662.931 293.012 662.657 293.06 662.489 293.086 662.407 293.094L662.36 293.099 662.361 292.829C662.363 292.52 662.366 292.479 662.384 292.474 662.731 292.383 663.106 292.287 663.285 292.245L663.315 292.238 663.315 291.984C663.315 291.817 663.313 291.73 663.308 291.73 663.292 291.73 663.148 291.752 662.928 291.789 662.7 291.828 662.499 291.857 662.409 291.866L662.363 291.87 662.363 291.54 662.363 291.21 662.552 291.153C662.715 291.104 662.913 291.049 663.305 290.945L663.399 290.92 663.405 290.897C663.408 290.885 663.411 290.772 663.411 290.647 663.412 290.476 663.41 290.419 663.403 290.411 663.398 290.406 663.39 290.402 663.386 290.402ZM643.484 290.371C643.257 290.372 643.044 290.418 642.846 290.51 642.601 290.624 642.394 290.792 642.233 291.009 642.087 291.206 641.978 291.48 641.939 291.743 641.924 291.846 641.928 292.086 641.947 292.192 642.013 292.569 642.172 292.862 642.444 293.108 642.644 293.287 642.871 293.409 643.12 293.471 643.614 293.593 644.124 293.475 644.51 293.15 644.815 292.892 645.006 292.547 645.065 292.153 645.077 292.071 645.077 291.817 645.064 291.736 645.034 291.535 644.971 291.352 644.875 291.176 644.63 290.733 644.212 290.448 643.716 290.386 643.637 290.376 643.56 290.371 643.484 290.371ZM652.164 290.37C652.07 290.374 651.974 290.383 651.893 290.398 651.482 290.476 651.105 290.744 650.87 291.125 650.662 291.463 650.593 291.88 650.681 292.268 650.802 292.802 651.172 293.236 651.66 293.414 652.056 293.559 652.455 293.545 652.846 293.376 653.281 293.185 653.603 292.823 653.728 292.381 653.763 292.26 653.776 292.176 653.787 292.036 653.804 291.782 653.763 291.546 653.661 291.311 653.568 291.1 653.462 290.949 653.296 290.796 653.04 290.559 652.752 290.421 652.424 290.378 652.35 290.369 652.258 290.367 652.164 290.37ZM646.513 290.025C646.276 290.025 646.148 290.028 646.146 290.032 646.145 290.035 646.145 290.719 646.146 291.551L646.148 293.064 646.421 293.064 646.695 293.064 646.699 292.99C646.702 292.949 646.704 292.472 646.704 291.929 646.704 291.385 646.706 290.943 646.709 290.945 646.728 290.963 647.174 291.85 647.526 292.569 647.626 292.774 647.711 292.945 647.714 292.947 647.718 292.951 647.73 292.942 647.741 292.929 647.752 292.916 647.974 292.473 648.235 291.946 648.495 291.418 648.717 290.974 648.728 290.96L648.748 290.934 648.748 291.999 648.748 293.064 648.959 293.064C649.074 293.064 649.201 293.062 649.241 293.06L649.312 293.056 649.312 291.545 649.312 290.034 649.23 290.03C649.184 290.027 649.017 290.025 648.859 290.025L648.571 290.025 648.473 290.205C648.419 290.304 648.274 290.58 648.148 290.818 647.852 291.385 647.728 291.612 647.721 291.606 647.719 291.604 647.678 291.528 647.631 291.439 647.191 290.605 646.981 290.207 646.944 290.134 646.92 290.086 646.895 290.043 646.889 290.036 646.878 290.026 646.851 290.025 646.513 290.025ZM665.752 288.439C665.758 288.438 665.612 288.957 665.505 289.315 665.337 289.877 665.316 289.95 665.21 290.312 665.086 290.737 664.896 291.387 664.87 291.48 664.854 291.535 664.852 291.548 664.859 291.569 664.866 291.588 664.926 291.649 665.107 291.822 665.492 292.188 665.738 292.421 665.937 292.605 666.099 292.756 666.154 292.813 666.142 292.823 666.122 292.838 665.455 293.178 665.132 293.337 664.15 293.82 663.794 293.97 663.156 294.175 662.768 294.299 662.097 294.474 661.393 294.633 660.605 294.811 659.851 294.925 659.177 294.969 658.991 294.981 657.814 294.981 657.577 294.969 656.28 294.903 655.313 294.778 653.237 294.406 652.537 294.281 652.378 294.254 652.087 294.211 651.051 294.06 649.7 293.927 648.733 293.884 648.094 293.855 647.451 293.859 646.777 293.894 646.145 293.927 645.095 294.015 644.507 294.082 643.832 294.16 643.449 294.22 642.405 294.409 641.157 294.635 640.731 294.704 639.992 294.799 638.602 294.977 637.309 295.03 636.256 294.95 635.324 294.88 634.309 294.661 633.14 294.277 632.111 293.939 631.183 293.579 630.21 293.141 629.965 293.031 629.537 292.832 629.523 292.823 629.515 292.817 629.535 292.787 629.565 292.761 629.597 292.733 629.73 292.607 630.042 292.311 630.204 292.157 630.447 291.923 630.651 291.724L630.809 291.571 630.8 291.536C630.657 291.03 630.445 290.295 630.279 289.728 630.067 289.006 629.909 288.468 629.906 288.46 629.904 288.454 629.908 288.454 629.923 288.456 629.953 288.463 629.99 288.481 630.069 288.528 630.175 288.59 630.303 288.655 630.653 288.824 631.145 289.062 631.636 289.283 632.034 289.445 633.181 289.913 634.367 290.25 635.432 290.411 636.044 290.504 636.485 290.534 637.252 290.534 638.311 290.534 639.056 290.483 639.918 290.351 640.334 290.288 640.673 290.227 641.541 290.059 642.766 289.821 643.16 289.759 644.858 289.537 646.108 289.373 646.523 289.331 647.235 289.297 647.459 289.286 648.17 289.286 648.392 289.297 649.202 289.336 650.07 289.426 651.387 289.609 652.481 289.761 653.07 289.857 653.921 290.025 654.123 290.065 654.432 290.125 654.607 290.16 655.464 290.328 656.076 290.413 656.91 290.478 657.464 290.521 657.786 290.53 658.6 290.525 659.206 290.522 659.312 290.519 659.576 290.497 659.94 290.467 660.486 290.38 660.986 290.273 662.051 290.045 663.248 289.634 664.484 289.073 664.982 288.847 665.266 288.707 665.612 288.516 665.689 288.474 665.752 288.439 665.752 288.439ZM607.896 284.522 609.111 284.522 609.111 305.169 607.896 305.169 607.896 295.637 595.158 295.637 595.158 305.169 593.944 305.169 593.944 284.522 595.158 284.522 595.158 294.054 607.896 294.054ZM511.35 283.364C508.182 283.364 505.577 285.743 505.263 288.792L505.249 289.068 505.827 289.068 505.844 288.718C505.956 287.5 506.427 286.028 507.807 285.097 507.092 286.458 506.844 287.392 506.831 288.54L506.842 289.068 512.701 289.068 512.709 288.65C512.695 287.053 512.318 285.986 511.103 284.643 513.016 284.976 513.982 287.332 514.124 288.775L514.129 289.068 514.815 289.068 514.763 288.408C514.379 285.782 512.872 284.442 511.303 283.946L511.964 283.395ZM610.338 283.288 610.723 283.377 610.723 306.789 609.509 305.527 609.509 284.122ZM592.716 283.288 593.545 284.122 593.545 305.527 592.331 306.789 592.331 283.377ZM606.284 282.902 607.498 284.122 607.498 292.765 606.284 291.544ZM596.771 282.902 596.771 291.544 595.557 292.765 595.557 284.122ZM606.489 282.603C607.648 282.752 608.8 282.952 609.942 283.2L608.997 284.149 608.028 284.149ZM596.565 282.603 595.026 284.149 594.057 284.149 593.113 283.2C594.255 282.952 595.406 282.752 596.565 282.603ZM601.527 282.278C602.979 282.278 604.432 282.365 605.885 282.529L605.885 283.905C604.438 284.07 602.984 284.154 601.527 284.157 600.075 284.154 598.622 284.07 597.169 283.905L597.169 282.529C598.622 282.365 600.075 282.278 601.527 282.278ZM601.527 280.742C604.727 280.748 607.931 281.148 611.137 281.941L610.649 283.075C607.605 282.36 604.565 281.999 601.527 281.994 598.49 281.999 595.449 282.36 592.406 283.075L591.917 281.941C595.124 281.148 598.327 280.748 601.527 280.742ZM601.527 279.149C604.933 279.155 608.342 279.608 611.756 280.506L611.27 281.633C608.019 280.817 604.771 280.406 601.527 280.401 598.283 280.406 595.036 280.817 591.785 281.633L591.299 280.506C594.712 279.608 598.122 279.155 601.527 279.149ZM601.527 277.556C605.137 277.562 608.752 278.071 612.37 279.08L611.888 280.2C608.43 279.278 604.977 278.814 601.527 278.808L601.527 278.808C598.078 278.814 594.624 279.278 591.167 280.2L590.684 279.08C594.303 278.071 597.917 277.562 601.527 277.556ZM531.347 277.3 531.994 278.495C532.346 279.237 532.657 280.002 532.925 280.786L533.224 281.848 532.869 283.21C532.548 284.757 532.38 286.359 532.38 288 532.38 301.126 543.155 311.766 556.448 311.766 563.094 311.766 569.111 309.106 573.466 304.805L576.331 301.376 577.764 303.838 578.171 304.35 577.547 305.174C572.532 311.175 564.942 315 556.448 315 541.347 315 529.105 302.912 529.105 288 529.105 284.272 529.87 280.721 531.253 277.49ZM576.468 277.264 576.478 277.278C577.004 278.234 577.461 279.232 577.845 280.266L578.314 281.901 577.973 283.21C577.653 284.757 577.484 286.359 577.484 288 577.484 301.126 588.26 311.766 601.552 311.766 608.198 311.766 614.215 309.106 618.571 304.805L621.425 301.389 622.489 303.268 623.282 304.342 622.651 305.174C617.636 311.175 610.047 315 601.552 315 586.451 315 574.209 302.912 574.209 288 574.209 284.272 574.974 280.721 576.358 277.49ZM637.672 277.16 640.663 277.16 643.186 281.159 647.832 277.16 652.479 281.159 655.001 277.16 657.992 277.16 652.479 284.325 647.832 280.065 643.186 284.325ZM636.406 277.16 637.08 277.16 643.186 285.008 647.832 280.617 652.479 285.008 658.584 277.16 659.258 277.16 652.479 285.875 647.832 281.473 643.186 285.875ZM629.454 277.16 636.088 277.16 643.186 286.533 647.832 282.141 652.479 286.533 659.576 277.16 666.21 277.16 663.912 279.231 661.03 279.231 660.339 280.107 662.94 280.107 660.477 282.327 658.401 282.327 657.71 283.203 659.505 283.203 657.264 285.222 656.135 285.222 655.444 286.098 656.292 286.098 652.479 289.535 647.832 285.37 643.186 289.535 639.372 286.098 640.22 286.098 639.529 285.222 638.4 285.222 636.16 283.203 637.954 283.203 637.263 282.327 635.188 282.327 632.724 280.107 635.325 280.107 634.634 279.231 631.752 279.231ZM552.078 275.933C552.529 275.978 552.922 276.319 553.013 276.936 553.066 277.252 553.136 277.933 553.013 278.378 552.831 279.034 552.473 279.64 551.615 279.335 551.607 278.223 551.625 277.098 551.618 275.986 551.772 275.935 551.928 275.918 552.078 275.933ZM550.677 274.91 550.677 280.314 551.134 280.314 551.609 280.314 552.248 280.314 552.248 280.311 552.362 280.313C553.063 280.295 553.435 280.053 553.872 278.787 554.064 278.234 554.065 276.871 553.83 276.229 553.596 275.586 553.293 275.05 552.467 274.933L552.322 274.91 551.609 274.91 551.208 274.91ZM558.228 274.91 559.026 280.309 560.07 280.309 560.635 278.076 561.199 280.309 562.243 280.309 563.042 274.91 562.105 274.91 561.549 277.323 561.012 274.91 560.258 274.91 559.721 277.323 559.164 274.91ZM554.575 274.91 554.575 280.309 555.505 280.309 555.637 279.639 555.835 278.641 556.988 280.309 558.061 280.309 556.222 277.65 557.787 274.91 556.662 274.91 555.637 276.703 555.637 274.91ZM557.002 272.96C559.788 273.028 562.382 273.54 564.662 274.296L556.428 303.762 548.194 274.296C551.239 273.27 554.216 272.893 557.002 272.96ZM596.805 272.676C595.995 272.676 595.338 273.392 595.338 274.275 595.338 275.159 595.995 275.875 596.805 275.875 597.615 275.875 598.271 275.159 598.271 274.275 598.271 273.392 597.615 272.676 596.805 272.676ZM509.341 272.611 509.341 283.041 509.461 283.001C509.86 282.886 510.275 282.807 510.702 282.767L510.852 282.76 510.852 272.611ZM556.415 272.485C553.897 272.484 551.379 272.856 548.948 273.601L547.652 274.071 548.833 278.769 548.833 278.77 548.833 278.77 547.353 278.77 547.149 278.77 547.149 294.001 556.433 304.185 565.717 294.001 565.717 278.77 565.513 278.77 564.033 278.77 564.033 278.77 564.033 278.769 565.21 274.085 563.882 273.604C561.451 272.858 558.933 272.485 556.415 272.485ZM601.993 271.113C601.852 271.115 601.696 271.153 601.527 271.238L601.527 272.617C603.166 272.85 602.973 271.098 601.993 271.113ZM606.95 270.923C608.213 270.923 609.288 271.864 609.681 273.173L608.288 273.819C608.119 273.148 607.583 272.658 606.95 272.658 606.179 272.658 605.554 273.382 605.554 274.274 605.554 275.167 606.179 275.891 606.95 275.891 607.391 275.891 607.785 275.653 608.041 275.281L608.889 276.759C608.376 277.297 607.696 277.625 606.95 277.625 605.353 277.625 604.058 276.125 604.058 274.275 604.058 272.424 605.353 270.923 606.95 270.923ZM596.748 270.81C598.445 270.81 599.82 272.311 599.82 274.161 599.82 276.012 598.445 277.512 596.748 277.512 595.052 277.512 593.676 276.012 593.676 274.161 593.676 272.311 595.052 270.81 596.748 270.81ZM556.416 270.775C560.004 270.775 563.592 271.484 566.96 272.9L566.957 272.908 566.986 272.908 565.877 277.319 566.986 277.319 566.986 277.319 566.986 277.319 566.986 292.61 566.986 292.609 566.986 294.9 556.435 306.474 556.435 306.477 556.433 306.476 556.432 306.477 556.432 306.474 545.88 294.9 545.88 292.609 545.881 292.61 545.881 277.319 545.881 277.319 546.989 277.319 545.888 272.938 545.87 272.897C549.239 271.482 552.828 270.774 556.416 270.775ZM611.763 270.406 612.884 270.948 611.635 273.848 612.888 274.393 614.138 271.493 615.299 271.945 612.464 278.523 611.263 278.163 612.377 275.578 611.124 275.033 609.913 277.841 608.649 277.629ZM591.292 270.406 594.437 277.703 593.19 277.955 591.931 275.033 590.678 275.578 591.825 278.239 590.609 278.565 587.756 271.945 588.917 271.493 590.167 274.393 591.42 273.848 590.17 270.948ZM601.433 269.243C604.598 269.572 605.51 272.366 603.006 274.075L604.556 277.049 602.978 277.049 601.527 274.266 601.527 277.049 599.942 277.049 599.942 269.263C600.483 269.199 600.981 269.196 601.433 269.243ZM509.047 267.601 506.97 271.743 508.775 271.743 510.852 267.601ZM508.46 266.733 508.612 266.733 512.916 266.733 513.135 266.733 513.135 283.001 513.826 283.199C516.126 284.096 517.809 286.204 518.068 288.728L518.086 289.068 524.479 289.068 511.35 308.684 498.22 289.068 504.614 289.068 504.631 288.728C504.858 286.519 506.175 284.629 508.041 283.591L508.612 283.322 508.612 272.595 505.621 272.595ZM601.552 261C616.653 261 628.895 273.088 628.895 288 628.895 291.728 628.13 295.279 626.747 298.51L626.636 298.736 626.627 298.722C625.926 297.447 625.346 296.098 624.902 294.689L624.769 294.18 625.131 292.79C625.452 291.243 625.62 289.641 625.62 288 625.62 274.874 614.845 264.234 601.552 264.234 594.906 264.234 588.889 266.894 584.534 271.195L581.709 274.576 581.673 274.497 579.827 271.653 580.453 270.826C585.468 264.825 593.058 261 601.552 261ZM556.448 261C571.549 261 583.791 273.088 583.791 288 583.791 291.728 583.026 295.279 581.642 298.51L581.532 298.736 581.522 298.722C580.996 297.766 580.539 296.768 580.155 295.734L579.686 294.099 580.027 292.79C580.347 291.243 580.516 289.641 580.516 288 580.516 274.874 569.74 264.234 556.448 264.234 549.802 264.234 543.785 266.894 539.429 271.195L536.606 274.574 536.568 274.497C536.127 273.695 535.647 272.915 535.131 272.162L534.734 271.637 535.349 270.826C540.364 264.825 547.953 261 556.448 261ZM511.343 261C526.444 261 538.686 273.088 538.686 288 538.686 291.728 537.921 295.279 536.537 298.51L536.427 298.736 536.418 298.722C535.892 297.766 535.434 296.768 535.051 295.734L534.581 294.099 534.922 292.79C535.242 291.243 535.411 289.641 535.411 288 535.411 274.874 524.635 264.234 511.343 264.234 498.051 264.234 487.275 274.874 487.275 288 487.275 301.126 498.051 311.766 511.343 311.766 517.989 311.766 524.006 309.106 528.362 304.805L531.226 301.376 532.659 303.838 533.067 304.35 532.442 305.174C527.427 311.175 519.837 315 511.343 315 496.242 315 484 302.912 484 288 484 273.088 496.242 261 511.343 261ZM646.657 261C661.758 261 674 273.088 674 288 674 302.912 661.758 315 646.657 315 631.556 315 619.314 302.912 619.314 288 619.314 284.272 620.079 280.721 621.463 277.49L621.573 277.264 621.582 277.278C622.108 278.234 622.566 279.232 622.949 280.266L623.419 281.901 623.078 283.21C622.758 284.757 622.589 286.359 622.589 288 622.589 301.126 633.365 311.766 646.657 311.766 659.949 311.766 670.725 301.126 670.725 288 670.725 274.874 659.949 264.234 646.657 264.234 640.011 264.234 633.994 266.894 629.638 271.195L626.814 274.576 626.778 274.497 624.931 271.653 625.558 270.825C630.573 264.825 638.163 261 646.657 261Z" fill="#002060" fill-rule="evenodd"/></g></svg>