<svg width="190" height="54" viewBox="0 0 190 54" fill="none" xmlns="http://www.w3.org/2000/svg">
<path fill-rule="evenodd" clip-rule="evenodd" d="M124.028 44.542H124.997L126.22 45.77H122.806L124.028 44.542ZM110.057 44.542H111.026L112.248 45.77H108.835L110.057 44.542ZM123.498 35.926V44.569L122.284 45.789V37.147L123.498 35.926ZM111.557 35.926L112.771 37.147V45.789L111.557 44.569V35.926ZM111.557 35.037H123.498L122.284 36.257H112.771L111.557 35.037ZM31.166 32.308C31.694 32.308 32.122 32.717 32.122 33.221C32.122 33.726 31.694 34.135 31.166 34.135C30.639 34.135 30.211 33.726 30.211 33.221C30.211 32.717 30.639 32.308 31.166 32.308ZM22.859 32.214L23.529 33.497H22.19L22.859 32.214ZM171.338 31.669C171.365 31.669 171.541 31.698 171.614 31.715C171.877 31.775 172.016 31.875 172.051 32.031C172.075 32.142 172.027 32.302 171.953 32.359C171.904 32.397 171.865 32.405 171.739 32.405C171.622 32.405 171.585 32.399 171.411 32.356L171.327 32.335L171.322 32.124C171.319 32.008 171.319 31.858 171.322 31.791C171.326 31.689 171.329 31.669 171.338 31.669ZM112.771 31.434H122.284L123.498 32.654H111.557L112.771 31.434ZM33.545 31.394V35.048H34.617V31.394H33.545ZM25.404 31.379V33.335V33.363H25.407L25.439 33.68C25.601 34.461 26.298 35.048 27.134 35.048C27.969 35.048 28.667 34.461 28.828 33.68L28.86 33.363H28.863V33.335V31.379H27.693V33.335H27.681C27.681 33.636 27.436 33.881 27.134 33.881C26.831 33.881 26.586 33.636 26.586 33.335H26.575V31.379H25.404ZM149.47 30.777C149.477 30.779 149.508 30.787 149.541 30.795L149.601 30.81L149.716 31.156C149.779 31.346 149.831 31.503 149.829 31.503C149.823 31.509 149.643 31.486 149.461 31.459C149.352 31.442 149.257 31.428 149.248 31.428C149.21 31.427 149.211 31.424 149.262 31.282C149.289 31.208 149.345 31.063 149.385 30.96C149.445 30.808 149.461 30.773 149.47 30.777ZM171.338 30.445C171.398 30.445 171.574 30.483 171.651 30.512C171.854 30.588 171.935 30.734 171.874 30.911C171.842 31.005 171.784 31.046 171.677 31.052C171.608 31.055 171.55 31.047 171.423 31.015L171.325 30.991V30.718C171.325 30.463 171.326 30.445 171.338 30.445ZM152.078 30.32C151.921 30.32 151.79 30.323 151.788 30.325C151.786 30.329 151.784 30.787 151.784 31.345C151.783 32.46 151.782 32.421 151.828 32.582C151.943 32.986 152.214 33.24 152.619 33.324C152.852 33.372 153.126 33.356 153.337 33.281C153.696 33.154 153.942 32.838 154.008 32.418C154.021 32.337 154.021 32.273 154.018 31.331C154.018 30.781 154.014 30.328 154.011 30.325C154.008 30.322 153.879 30.321 153.724 30.321L153.443 30.323L153.442 31.321C153.441 32.422 153.443 32.356 153.395 32.466C153.357 32.551 153.276 32.647 153.201 32.693C153.155 32.721 153.062 32.758 153.009 32.769C152.931 32.784 152.817 32.779 152.745 32.756C152.56 32.698 152.421 32.555 152.373 32.374C152.361 32.329 152.36 32.256 152.362 31.322L152.364 30.32H152.078ZM173.786 30.122L173.778 30.139C173.767 30.166 173.769 33.159 173.781 33.166C173.785 33.169 173.905 33.171 174.046 33.171H174.304L174.309 32.997C174.312 32.901 174.312 32.214 174.309 31.472L174.304 30.122H174.044H173.786ZM156.928 29.991C156.919 29.987 156.761 30.013 156.431 30.076C156.165 30.126 155.808 30.192 155.636 30.224C155.465 30.255 155.309 30.284 155.289 30.288L155.254 30.296L155.259 30.504C155.262 30.619 155.266 30.715 155.269 30.717C155.278 30.726 155.517 30.783 155.6 30.796C155.646 30.804 155.702 30.817 155.723 30.826L155.761 30.841V31.048C155.761 31.162 155.766 31.671 155.772 32.18C155.778 32.689 155.783 33.124 155.783 33.147V33.19L155.84 33.186C155.871 33.183 155.982 33.176 156.087 33.171C156.191 33.165 156.291 33.159 156.309 33.157L156.339 33.154V33.054C156.339 32.799 156.361 30.872 156.366 30.765C156.37 30.649 156.371 30.644 156.386 30.64C156.405 30.635 156.957 30.438 156.961 30.436C156.962 30.434 156.959 30.367 156.955 30.286C156.95 30.205 156.945 30.111 156.944 30.079C156.943 30.046 156.941 30.014 156.941 30.008C156.941 30.002 156.934 29.994 156.928 29.991ZM175.921 29.951C175.841 29.952 175.739 29.953 175.648 29.955L175.558 29.957V31.476V32.996H176.291H177.023V32.71V32.423L176.666 32.419C176.469 32.417 176.258 32.413 176.198 32.41L176.086 32.406V31.182V29.958L176.069 29.954C176.061 29.952 176.002 29.951 175.921 29.951ZM168.232 29.8C168.305 29.801 168.377 29.806 168.412 29.814C168.615 29.855 168.791 29.94 168.941 30.071C169.182 30.28 169.311 30.532 169.338 30.853C169.363 31.136 169.281 31.409 169.105 31.634C169.038 31.72 168.884 31.859 168.796 31.911C168.662 31.992 168.526 32.042 168.375 32.067C168.276 32.085 168.086 32.085 167.998 32.068C167.661 32.004 167.36 31.781 167.192 31.472C167.141 31.378 167.111 31.298 167.085 31.189C167.07 31.122 167.066 31.084 167.063 30.969C167.058 30.809 167.065 30.74 167.098 30.622C167.157 30.41 167.264 30.24 167.434 30.088C167.61 29.93 167.801 29.843 168.046 29.806C168.084 29.8 168.158 29.798 168.232 29.8ZM159.516 29.798C159.556 29.796 159.708 29.812 159.773 29.827C160.001 29.876 160.201 29.995 160.365 30.176C160.564 30.397 160.662 30.653 160.662 30.949C160.662 31.509 160.256 31.981 159.695 32.074C159.603 32.089 159.431 32.089 159.338 32.074C158.984 32.016 158.672 31.795 158.509 31.487C158.416 31.311 158.378 31.156 158.377 30.954C158.377 30.76 158.422 30.575 158.511 30.398C158.616 30.189 158.819 29.999 159.044 29.895C159.155 29.845 159.276 29.815 159.426 29.804C159.467 29.802 159.508 29.798 159.516 29.798ZM170.763 29.752C170.762 29.752 170.761 30.434 170.761 31.268V32.783L170.888 32.813C171.135 32.873 171.514 32.944 171.671 32.96C171.791 32.973 171.939 32.97 172.046 32.953C172.401 32.898 172.599 32.711 172.644 32.391C172.656 32.304 172.648 32.115 172.629 32.031C172.595 31.879 172.54 31.757 172.425 31.579C172.325 31.423 172.315 31.398 172.33 31.34C172.336 31.318 172.355 31.261 172.371 31.212C172.426 31.052 172.44 30.974 172.441 30.842C172.442 30.744 172.439 30.716 172.425 30.658C172.375 30.458 172.284 30.307 172.131 30.167C171.999 30.048 171.886 29.988 171.679 29.928C171.552 29.891 171.413 29.863 171.12 29.815C170.997 29.794 170.867 29.772 170.83 29.764C170.794 29.758 170.764 29.752 170.763 29.752ZM29.944 29.739L30.935 31.417L30.787 31.431C29.93 31.602 29.286 32.338 29.286 33.221C29.286 34.23 30.128 35.048 31.166 35.048C32.205 35.048 33.047 34.23 33.047 33.221C33.047 32.843 32.928 32.491 32.726 32.2L32.7 32.17L31.26 29.739H29.944ZM21.568 29.739L22.273 31.091L20.209 35.048H21.38L21.66 34.511H24.058L24.338 35.048H25.51L22.74 29.739H21.568ZM149.295 29.735C149.272 29.731 149.279 29.734 149.277 29.737C149.266 29.752 148.752 30.86 148.521 31.364C148.434 31.555 148.309 31.824 148.245 31.962C148.128 32.211 148.084 32.308 148.043 32.413L148.021 32.467L148.047 32.471C148.062 32.473 148.204 32.499 148.363 32.527C148.522 32.555 148.655 32.577 148.657 32.575C148.66 32.572 148.687 32.515 148.717 32.448C148.837 32.18 148.95 31.952 148.963 31.952C148.967 31.952 149.032 31.963 149.108 31.975C149.223 31.994 149.43 32.027 149.92 32.102C149.956 32.107 149.989 32.115 149.994 32.118C149.998 32.121 150.01 32.142 150.019 32.166C150.057 32.26 150.151 32.48 150.254 32.713L150.364 32.962L150.405 32.966C150.428 32.968 150.548 32.985 150.671 33.003C150.795 33.021 150.898 33.036 150.9 33.036C150.905 33.036 150.657 32.366 150.315 31.46C150.159 31.046 149.958 30.509 149.869 30.268L149.707 29.828L149.494 29.78C149.372 29.752 149.318 29.74 149.295 29.735ZM179.386 29.402C179.381 29.403 179.019 29.499 178.579 29.616L177.781 29.828L177.779 31.291L177.777 32.753L177.795 32.749C177.855 32.736 178.638 32.581 178.956 32.52C179.164 32.48 179.354 32.444 179.378 32.439L179.422 32.43L179.424 32.182L179.425 31.934L179.409 31.936C179.285 31.953 179.15 31.974 178.931 32.012C178.657 32.06 178.489 32.086 178.407 32.094L178.36 32.099L178.361 31.829C178.363 31.52 178.366 31.479 178.384 31.474C178.731 31.383 179.106 31.287 179.285 31.245L179.315 31.238V30.984C179.315 30.817 179.313 30.73 179.308 30.73C179.292 30.73 179.148 30.752 178.928 30.789C178.7 30.828 178.499 30.857 178.409 30.866L178.363 30.87V30.54V30.21L178.552 30.153C178.715 30.104 178.913 30.049 179.305 29.945L179.399 29.92L179.405 29.897C179.408 29.885 179.411 29.772 179.411 29.647C179.412 29.476 179.41 29.419 179.403 29.411C179.398 29.406 179.39 29.402 179.386 29.402ZM159.484 29.371C159.257 29.372 159.044 29.418 158.846 29.51C158.601 29.624 158.394 29.792 158.233 30.009C158.087 30.206 157.978 30.48 157.939 30.743C157.924 30.846 157.928 31.086 157.947 31.192C158.013 31.569 158.172 31.862 158.444 32.108C158.644 32.287 158.871 32.409 159.12 32.471C159.614 32.593 160.124 32.475 160.51 32.15C160.815 31.892 161.006 31.547 161.065 31.153C161.077 31.071 161.077 30.817 161.064 30.736C161.034 30.535 160.971 30.352 160.875 30.176C160.63 29.733 160.212 29.448 159.716 29.386C159.637 29.376 159.56 29.371 159.484 29.371ZM168.164 29.37C168.07 29.374 167.974 29.383 167.893 29.398C167.482 29.476 167.105 29.744 166.87 30.125C166.662 30.463 166.593 30.88 166.681 31.268C166.802 31.802 167.172 32.236 167.66 32.414C168.056 32.559 168.455 32.545 168.846 32.376C169.281 32.185 169.603 31.823 169.728 31.381C169.763 31.26 169.776 31.176 169.787 31.036C169.804 30.782 169.763 30.546 169.661 30.311C169.568 30.1 169.462 29.949 169.296 29.796C169.04 29.559 168.752 29.421 168.424 29.378C168.35 29.369 168.258 29.367 168.164 29.37ZM162.513 29.025C162.276 29.025 162.148 29.028 162.146 29.032C162.145 29.035 162.145 29.719 162.146 30.551L162.148 32.064H162.421H162.695L162.699 31.99C162.702 31.949 162.704 31.472 162.704 30.929C162.704 30.385 162.706 29.943 162.709 29.945C162.728 29.963 163.174 30.85 163.526 31.569C163.626 31.774 163.711 31.945 163.714 31.947C163.718 31.951 163.73 31.942 163.741 31.929C163.752 31.916 163.974 31.473 164.235 30.946C164.495 30.418 164.717 29.974 164.728 29.96L164.748 29.934V30.999V32.064H164.959C165.074 32.064 165.201 32.062 165.241 32.06L165.312 32.056V30.545V29.034L165.23 29.03C165.184 29.027 165.017 29.025 164.859 29.025H164.571L164.473 29.205C164.419 29.304 164.274 29.58 164.148 29.818C163.852 30.385 163.728 30.612 163.721 30.606C163.719 30.604 163.678 30.528 163.631 30.439C163.191 29.605 162.981 29.207 162.944 29.134C162.92 29.086 162.895 29.043 162.889 29.036C162.878 29.026 162.851 29.025 162.513 29.025ZM181.752 27.439C181.758 27.438 181.612 27.957 181.505 28.315C181.337 28.877 181.316 28.95 181.21 29.312C181.086 29.737 180.896 30.387 180.87 30.48C180.854 30.535 180.852 30.548 180.859 30.569C180.866 30.588 180.926 30.649 181.107 30.822C181.492 31.188 181.738 31.421 181.937 31.605C182.099 31.756 182.154 31.813 182.142 31.823C182.122 31.838 181.455 32.178 181.132 32.337C180.15 32.82 179.794 32.97 179.156 33.175C178.768 33.299 178.097 33.474 177.393 33.633C176.605 33.811 175.851 33.925 175.177 33.969C174.991 33.981 173.814 33.981 173.577 33.969C172.28 33.903 171.313 33.778 169.237 33.406C168.537 33.281 168.378 33.254 168.087 33.211C167.051 33.06 165.7 32.927 164.733 32.884C164.094 32.855 163.451 32.859 162.777 32.894C162.145 32.927 161.095 33.015 160.507 33.082C159.832 33.16 159.449 33.22 158.405 33.409C157.157 33.635 156.731 33.704 155.992 33.799C154.602 33.977 153.309 34.03 152.256 33.95C151.324 33.88 150.309 33.661 149.14 33.277C148.111 32.939 147.183 32.579 146.21 32.141C145.965 32.031 145.537 31.832 145.523 31.823C145.515 31.817 145.535 31.787 145.565 31.761C145.597 31.733 145.73 31.607 146.042 31.311C146.204 31.157 146.447 30.923 146.651 30.724L146.809 30.571L146.8 30.536C146.657 30.03 146.445 29.295 146.279 28.728C146.067 28.006 145.909 27.468 145.906 27.46C145.904 27.454 145.908 27.454 145.923 27.456C145.953 27.463 145.99 27.481 146.069 27.528C146.175 27.59 146.303 27.655 146.653 27.824C147.145 28.062 147.636 28.283 148.034 28.445C149.181 28.913 150.367 29.25 151.432 29.411C152.044 29.504 152.485 29.534 153.252 29.534C154.311 29.534 155.056 29.483 155.918 29.351C156.334 29.288 156.673 29.227 157.541 29.059C158.766 28.821 159.16 28.759 160.858 28.537C162.108 28.373 162.523 28.331 163.235 28.297C163.459 28.286 164.17 28.286 164.392 28.297C165.202 28.336 166.07 28.426 167.387 28.609C168.481 28.761 169.07 28.857 169.921 29.025C170.123 29.065 170.432 29.125 170.607 29.16C171.464 29.328 172.076 29.413 172.91 29.478C173.464 29.521 173.786 29.53 174.6 29.525C175.206 29.522 175.312 29.519 175.576 29.497C175.94 29.467 176.486 29.38 176.986 29.273C178.051 29.045 179.248 28.634 180.484 28.073C180.982 27.847 181.266 27.707 181.612 27.516C181.689 27.474 181.752 27.439 181.752 27.439ZM123.896 23.522H125.111V44.169H123.896V34.637H111.158V44.169H109.944V23.522H111.158V33.054H123.896V23.522ZM27.35 22.364C24.182 22.364 21.577 24.743 21.263 27.792L21.249 28.068H21.827L21.844 27.718C21.956 26.5 22.427 25.028 23.807 24.097C23.092 25.458 22.844 26.392 22.831 27.54L22.842 28.068H28.701L28.709 27.65C28.695 26.053 28.318 24.986 27.103 23.643C29.016 23.976 29.982 26.332 30.124 27.775L30.129 28.068H30.815L30.763 27.408C30.379 24.782 28.872 23.442 27.303 22.946L27.964 22.395L27.35 22.364ZM126.338 22.288L126.723 22.377V45.789L125.509 44.527V23.122L126.338 22.288ZM108.716 22.288L109.545 23.122V44.527L108.331 45.789V22.377L108.716 22.288ZM122.284 21.902L123.498 23.122V31.765L122.284 30.544V21.902ZM112.771 21.902V30.544L111.557 31.765V23.122L112.771 21.902ZM122.489 21.603C123.648 21.752 124.8 21.952 125.942 22.2L124.997 23.149H124.028L122.489 21.603ZM112.565 21.603L111.026 23.149H110.057L109.113 22.2C110.255 21.952 111.406 21.752 112.565 21.603ZM117.527 21.278C118.979 21.278 120.432 21.365 121.885 21.529V22.905C120.438 23.07 118.984 23.154 117.527 23.157C116.075 23.154 114.622 23.07 113.169 22.905V21.529C114.622 21.365 116.075 21.278 117.527 21.278ZM117.527 19.742C120.727 19.748 123.931 20.148 127.137 20.941L126.649 22.075C123.605 21.36 120.565 20.999 117.527 20.994C114.49 20.999 111.449 21.36 108.406 22.075L107.917 20.941C111.124 20.148 114.327 19.748 117.527 19.742ZM117.527 18.149C120.933 18.155 124.342 18.608 127.756 19.506L127.27 20.633C124.019 19.817 120.771 19.406 117.527 19.401C114.283 19.406 111.036 19.817 107.785 20.633L107.299 19.506C110.712 18.608 114.122 18.155 117.527 18.149ZM117.527 16.556C121.137 16.562 124.752 17.071 128.37 18.08L127.888 19.2C124.43 18.278 120.977 17.814 117.527 17.808C114.078 17.814 110.624 18.278 107.167 19.2L106.684 18.08C110.303 17.071 113.917 16.562 117.527 16.556ZM47.347 16.3L47.994 17.495C48.346 18.237 48.657 19.002 48.925 19.786L49.224 20.848L48.869 22.21C48.548 23.757 48.38 25.359 48.38 27C48.38 40.126 59.155 50.766 72.448 50.766C79.094 50.766 85.111 48.106 89.466 43.805L92.331 40.376L93.764 42.838L94.171 43.35L93.547 44.174C88.532 50.175 80.942 54 72.448 54C57.347 54 45.105 41.912 45.105 27C45.105 23.272 45.87 19.721 47.253 16.49L47.347 16.3ZM92.468 16.264L92.478 16.278C93.004 17.234 93.461 18.232 93.845 19.266L94.314 20.901L93.973 22.21C93.653 23.757 93.484 25.359 93.484 27C93.484 40.126 104.26 50.766 117.552 50.766C124.198 50.766 130.215 48.106 134.571 43.805L137.425 40.389L138.489 42.268L139.282 43.342L138.651 44.174C133.636 50.175 126.047 54 117.552 54C102.451 54 90.209 41.912 90.209 27C90.209 23.272 90.974 19.721 92.358 16.49L92.468 16.264ZM153.672 16.16H156.663L159.186 20.159L163.832 16.16L168.479 20.159L171.001 16.16H173.992L168.479 23.325L163.832 19.065L159.186 23.325L153.672 16.16ZM152.406 16.16H153.08L159.186 24.008L163.832 19.617L168.479 24.008L174.584 16.16H175.258L168.479 24.875L163.832 20.473L159.186 24.875L152.406 16.16ZM145.454 16.16H152.088L159.186 25.533L163.832 21.141L168.479 25.533L175.576 16.16H182.21L179.912 18.231H177.03L176.339 19.107H178.94L176.477 21.327H174.401L173.71 22.203H175.505L173.264 24.222H172.135L171.444 25.098H172.292L168.479 28.535L163.832 24.37L159.186 28.535L155.372 25.098H156.22L155.529 24.222H154.4L152.16 22.203H153.954L153.263 21.327H151.188L148.724 19.107H151.325L150.634 18.231H147.752L145.454 16.16ZM68.078 14.933C68.529 14.978 68.922 15.319 69.013 15.936C69.066 16.252 69.136 16.933 69.013 17.378C68.831 18.034 68.473 18.64 67.615 18.335C67.607 17.223 67.625 16.098 67.618 14.986C67.772 14.935 67.928 14.918 68.078 14.933ZM66.677 13.91V19.314H67.134H67.609H68.248V19.311L68.362 19.313C69.063 19.295 69.435 19.053 69.872 17.787C70.064 17.234 70.065 15.871 69.83 15.229C69.596 14.586 69.293 14.05 68.467 13.933L68.322 13.91H67.609H67.208H66.677ZM74.228 13.91L75.026 19.309H76.07L76.635 17.076L77.199 19.309H78.243L79.042 13.91H78.105L77.549 16.323L77.012 13.91H76.258L75.721 16.323L75.164 13.91H74.228ZM70.575 13.91V19.309H71.505L71.637 18.639L71.835 17.641L72.988 19.309H74.061L72.222 16.65L73.787 13.91H72.662L71.637 15.703V13.91H70.575ZM73.002 11.96C75.788 12.028 78.382 12.54 80.662 13.296L72.428 42.762L64.194 13.296C67.239 12.27 70.216 11.893 73.002 11.96ZM112.805 11.676C111.995 11.676 111.338 12.392 111.338 13.275C111.338 14.159 111.995 14.875 112.805 14.875C113.615 14.875 114.271 14.159 114.271 13.275C114.271 12.392 113.615 11.676 112.805 11.676ZM25.341 11.611V22.041L25.461 22.001C25.86 21.886 26.275 21.807 26.702 21.767L26.852 21.76V11.611H25.341ZM72.415 11.485C69.897 11.484 67.379 11.856 64.948 12.601L63.652 13.071L64.833 17.769V17.77H63.353H63.149V33.001L72.433 43.185L81.717 33.001V17.77H81.513H80.033V17.769L81.21 13.085L79.882 12.604C77.451 11.858 74.933 11.485 72.415 11.485ZM117.993 10.113C117.852 10.115 117.696 10.153 117.527 10.238V11.617C119.166 11.85 118.973 10.098 117.993 10.113ZM122.95 9.923C124.213 9.923 125.288 10.864 125.681 12.173L124.288 12.819C124.119 12.148 123.583 11.658 122.95 11.658C122.179 11.658 121.554 12.382 121.554 13.274C121.554 14.167 122.179 14.891 122.95 14.891C123.391 14.891 123.785 14.653 124.041 14.281L124.889 15.759C124.376 16.297 123.696 16.625 122.95 16.625C121.353 16.625 120.058 15.125 120.058 13.275C120.058 11.424 121.353 9.923 122.95 9.923ZM112.748 9.81C114.445 9.81 115.82 11.311 115.82 13.161C115.82 15.012 114.445 16.512 112.748 16.512C111.052 16.512 109.676 15.012 109.676 13.161C109.676 11.311 111.052 9.81 112.748 9.81ZM72.416 9.77499C76.004 9.77499 79.592 10.484 82.96 11.9L82.957 11.908H82.986L81.877 16.319H82.986V31.61V31.609V33.9L72.435 45.474V45.477L72.433 45.476L72.432 45.477V45.474L61.88 33.9V31.609L61.881 31.61V16.319H62.989L61.888 11.938L61.87 11.897C65.239 10.482 68.828 9.77399 72.416 9.77499ZM127.763 9.40601L128.884 9.948L127.635 12.848L128.888 13.393L130.138 10.493L131.299 10.945L128.464 17.523L127.263 17.163L128.377 14.578L127.124 14.033L125.913 16.841L124.649 16.629L127.763 9.40601ZM107.292 9.40601L110.437 16.703L109.19 16.955L107.931 14.033L106.678 14.578L107.825 17.239L106.609 17.565L103.756 10.945L104.917 10.493L106.167 13.393L107.42 12.848L106.17 9.948L107.292 9.40601ZM117.433 8.24301C120.598 8.57201 121.51 11.366 119.006 13.075L120.556 16.049H118.978L117.527 13.266V16.049H115.942V8.263C116.483 8.199 116.981 8.19601 117.433 8.24301ZM25.047 6.60101L22.97 10.743H24.775L26.852 6.60101H25.047ZM24.46 5.733H24.612H28.916H29.135V22.001L29.826 22.199C32.126 23.096 33.809 25.204 34.068 27.728L34.086 28.068H40.479L27.35 47.684L14.22 28.068H20.614L20.631 27.728C20.858 25.519 22.175 23.629 24.041 22.591L24.612 22.322V11.595H21.621L24.46 5.733ZM117.552 0C132.653 0 144.895 12.088 144.895 27C144.895 30.728 144.13 34.279 142.747 37.51L142.636 37.736L142.627 37.722C141.926 36.447 141.346 35.098 140.902 33.689L140.769 33.18L141.131 31.79C141.452 30.243 141.62 28.641 141.62 27C141.62 13.874 130.845 3.23401 117.552 3.23401C110.906 3.23401 104.889 5.89401 100.534 10.195L97.709 13.576L97.673 13.497L95.827 10.653L96.453 9.82599C101.468 3.82499 109.058 0 117.552 0ZM72.448 0C87.549 0 99.791 12.088 99.791 27C99.791 30.728 99.026 34.279 97.642 37.51L97.532 37.736L97.522 37.722C96.996 36.766 96.539 35.768 96.155 34.734L95.686 33.099L96.027 31.79C96.347 30.243 96.516 28.641 96.516 27C96.516 13.874 85.74 3.23401 72.448 3.23401C65.802 3.23401 59.785 5.89401 55.429 10.195L52.606 13.574L52.568 13.497C52.127 12.695 51.647 11.915 51.131 11.162L50.734 10.637L51.349 9.82599C56.364 3.82499 63.953 0 72.448 0ZM27.343 0C42.444 0 54.686 12.088 54.686 27C54.686 30.728 53.921 34.279 52.537 37.51L52.427 37.736L52.418 37.722C51.892 36.766 51.434 35.768 51.051 34.734L50.581 33.099L50.922 31.79C51.242 30.243 51.411 28.641 51.411 27C51.411 13.874 40.635 3.23401 27.343 3.23401C14.051 3.23401 3.27499 13.874 3.27499 27C3.27499 40.126 14.051 50.766 27.343 50.766C33.989 50.766 40.006 48.106 44.362 43.805L47.226 40.376L48.659 42.838L49.067 43.35L48.442 44.174C43.427 50.175 35.837 54 27.343 54C12.242 54 0 41.912 0 27C0 12.088 12.242 0 27.343 0ZM162.657 0C177.758 0 190 12.088 190 27C190 41.912 177.758 54 162.657 54C147.556 54 135.314 41.912 135.314 27C135.314 23.272 136.079 19.721 137.463 16.49L137.573 16.264L137.582 16.278C138.108 17.234 138.566 18.232 138.949 19.266L139.419 20.901L139.078 22.21C138.758 23.757 138.589 25.359 138.589 27C138.589 40.126 149.365 50.766 162.657 50.766C175.949 50.766 186.725 40.126 186.725 27C186.725 13.874 175.949 3.23401 162.657 3.23401C156.011 3.23401 149.994 5.89401 145.638 10.195L142.814 13.576L142.778 13.497L140.931 10.653L141.558 9.82501C146.573 3.82501 154.163 0 162.657 0Z" fill="#002060"/>
</svg>
