<svg width="19" height="19" viewBox="0 0 19 19" fill="none" xmlns="http://www.w3.org/2000/svg">
<g clip-path="url(#clip0)">
<path d="M18.9814 5.58605C18.9369 4.57651 18.7736 3.88246 18.5398 3.28105C18.2985 2.64267 17.9273 2.07114 17.4411 1.59601C16.9659 1.1135 16.3906 0.738563 15.7596 0.501074C15.1548 0.267211 14.4643 0.103956 13.4548 0.0594446C12.4377 0.011164 12.1148 0 9.53522 0C6.95562 0 6.63273 0.011164 5.61942 0.0556749C4.60988 0.100186 3.91583 0.263586 3.31457 0.497305C2.67605 0.738563 2.10451 1.10973 1.62939 1.59601C1.14687 2.07114 0.77208 2.64644 0.534447 3.27743C0.300584 3.88246 0.137329 4.57274 0.0928177 5.58228C0.0445371 6.59936 0.0333731 6.92225 0.0333731 9.50186C0.0333731 12.0815 0.0445371 12.4043 0.089048 13.4177C0.133559 14.4272 0.296959 15.1213 0.530823 15.7227C0.77208 16.361 1.14687 16.9326 1.62939 17.4077C2.10451 17.8902 2.67982 18.2651 3.3108 18.5026C3.91583 18.7365 4.60611 18.8998 5.6158 18.9443C6.62896 18.9889 6.95199 18.9999 9.5316 18.9999C12.1112 18.9999 12.4341 18.9889 13.4474 18.9443C14.4569 18.8998 15.151 18.7365 15.7523 18.5026C17.0292 18.009 18.0387 16.9994 18.5324 15.7227C18.7661 15.1176 18.9295 14.4272 18.974 13.4177C19.0185 12.4043 19.0297 12.0815 19.0297 9.50186C19.0297 6.92225 19.0259 6.59936 18.9814 5.58605ZM17.2704 13.3434C17.2295 14.2713 17.0737 14.7724 16.9438 15.1065C16.6245 15.9342 15.9676 16.5911 15.1398 16.9104C14.8058 17.0403 14.3011 17.1962 13.3768 17.2369C12.3746 17.2816 12.0741 17.2926 9.53899 17.2926C7.0039 17.2926 6.69957 17.2816 5.70105 17.2369C4.77313 17.1962 4.27206 17.0403 3.93801 16.9104C3.5261 16.7582 3.15117 16.5169 2.84684 16.2014C2.53135 15.8933 2.29009 15.5221 2.13786 15.1102C2.00795 14.7762 1.85209 14.2713 1.81135 13.3472C1.76669 12.345 1.75567 12.0443 1.75567 9.50925C1.75567 6.97416 1.76669 6.66983 1.81135 5.67145C1.85209 4.74353 2.00795 4.24246 2.13786 3.90841C2.29009 3.49636 2.53135 3.12157 2.85061 2.81709C3.15856 2.5016 3.52973 2.26034 3.94178 2.10825C4.27583 1.97835 4.78067 1.82248 5.70482 1.7816C6.70697 1.73709 7.00767 1.72592 9.54262 1.72592C12.0815 1.72592 12.382 1.73709 13.3806 1.7816C14.3085 1.82248 14.8096 1.97835 15.1436 2.10825C15.5555 2.26034 15.9304 2.5016 16.2348 2.81709C16.5503 3.12519 16.7915 3.49636 16.9438 3.90841C17.0737 4.24246 17.2295 4.74716 17.2704 5.67145C17.3149 6.6736 17.3261 6.97416 17.3261 9.50925C17.3261 12.0443 17.3149 12.3413 17.2704 13.3434Z" fill="black"/>
<path d="M9.53523 4.62103C6.84065 4.62103 4.6544 6.80714 4.6544 9.50187C4.6544 12.1966 6.84065 14.3827 9.53523 14.3827C12.23 14.3827 14.4161 12.1966 14.4161 9.50187C14.4161 6.80714 12.23 4.62103 9.53523 4.62103ZM9.53523 12.6679C7.78712 12.6679 6.36915 11.2501 6.36915 9.50187C6.36915 7.75362 7.78712 6.33579 9.53523 6.33579C11.2835 6.33579 12.7013 7.75362 12.7013 9.50187C12.7013 11.2501 11.2835 12.6679 9.53523 12.6679Z" fill="black"/>
<path d="M15.7486 4.42809C15.7486 5.05733 15.2384 5.56754 14.609 5.56754C13.9798 5.56754 13.4696 5.05733 13.4696 4.42809C13.4696 3.7987 13.9798 3.28864 14.609 3.28864C15.2384 3.28864 15.7486 3.7987 15.7486 4.42809Z" fill="black"/>
</g>
<defs>
<clipPath id="clip0">
<rect width="19" height="19" fill="white"/>
</clipPath>
</defs>
</svg>
